# File created by Blade
# Date/Time:  Thu Jan 22 16:36:26 2015
# Frame Rate: 120.000 fps
#------------------------------------------------------
:FULLY-SPECIFIED
:DEGREES
2389
root -1.169824 6.358171 -7.355204 -17.719935 -25.616091 47.111665
RightUpLeg -99.218071 6.287337 34.830812
RightLeg 142.352222 -0.000000 -0.000000
RightFoot 19.740121 -3.115031 83.429887
RightToeBase -397.489384 -0.000000 0.000000
LeftUpLeg -10.868564 -19.667386 31.640449
LeftLeg 152.986876 -0.000000 -0.000000
LeftFoot 26.184260 17.817738 -22.491526
LeftToeBase 9.252953 -0.000000 -0.000000
Spine 26.747993 7.363595 -2.913407
RightShoulder 1.886555 -23.482817 -40.565436
RightArm -5.035499 -6.584655 81.244320
RightForeArm -5.160682 -0.000000 68.119679
RightHand 31.353747 0.000000 -71.463597
RightHandThumb1 -24.326973 -0.000000 -32.862282
LeftShoulder -35.853135 31.477119 -15.172614
LeftArm 25.307959 -2.314682 -82.882868
LeftForeArm 38.480084 -0.000000 45.189228
LeftHand -29.129445 0.000000 -20.860402
LeftHandThumb1 -26.253704 0.000000 33.147579
Head -4.233546 14.569689 -36.648385
2390
root -1.170285 6.358274 -7.355639 -17.750321 -25.623320 47.098183
RightUpLeg -99.181435 6.259122 34.825124
RightLeg 142.339507 -0.000000 -0.000000
RightFoot 19.713174 -3.186682 83.721164
RightToeBase -397.503371 -0.000000 0.000000
LeftUpLeg -10.831949 -19.683182 31.641464
LeftLeg 152.971881 -0.000000 -0.000000
LeftFoot 26.183707 17.811938 -22.474106
LeftToeBase 9.274902 -0.000000 -0.000000
Spine 26.752904 7.333283 -2.894385
RightShoulder 1.884384 -23.445248 -40.583398
RightArm -5.022378 -6.633618 81.221099
RightForeArm -5.150896 0.000000 68.124180
RightHand 31.346615 0.000000 -71.415432
RightHandThumb1 -24.326973 -0.000000 -32.862282
LeftShoulder -35.877569 31.474930 -15.188945
LeftArm 25.323324 -2.281494 -82.841663
LeftForeArm 38.414280 -0.000000 45.134077
LeftHand -29.098390 -0.000000 -20.889936
LeftHandThumb1 -26.253704 0.000000 33.147579
Head -4.265445 14.606051 -36.629331
2391
root -1.170806 6.357315 -7.355239 -17.775306 -25.633277 47.087881
RightUpLeg -99.149426 6.250245 34.837084
RightLeg 142.334944 -0.000000 -0.000000
RightFoot 19.679033 -3.255734 83.994898
RightToeBase -397.563870 -0.000000 0.000000
LeftUpLeg -10.795906 -19.717757 31.646083
LeftLeg 152.958342 -0.000000 -0.000000
LeftFoot 26.240407 17.724756 -22.414600
LeftToeBase 9.145940 -0.000000 -0.000000
Spine 26.738299 7.316426 -2.881785
RightShoulder 1.899205 -23.402402 -40.598028
RightArm -5.032068 -6.669996 81.202938
RightForeArm -5.136281 -0.000000 68.119006
RightHand 31.361318 -0.000000 -71.414975
RightHandThumb1 -24.326973 -0.000000 -32.862282
LeftShoulder -35.870921 31.477715 -15.169805
LeftArm 25.291054 -2.267000 -82.832978
LeftForeArm 38.395094 -0.000000 45.121501
LeftHand -29.091684 -0.000000 -20.907474
LeftHandThumb1 -26.253704 0.000000 33.147579
Head -4.284499 14.608470 -36.592159
2392
root -1.171238 6.357645 -7.354674 -17.796784 -25.636289 47.087478
RightUpLeg -99.124334 6.233263 34.826004
RightLeg 142.327465 -0.000000 -0.000000
RightFoot 19.711293 -3.315844 84.287376
RightToeBase -397.717790 -0.000000 0.000000
LeftUpLeg -10.770811 -19.715572 31.639259
LeftLeg 152.946068 -0.000000 -0.000000
LeftFoot 26.222575 17.742941 -22.443359
LeftToeBase 9.149223 -0.000000 -0.000000
Spine 26.712199 7.303449 -2.879412
RightShoulder 1.917138 -23.382818 -40.609626
RightArm -5.025736 -6.671411 81.202047
RightForeArm -5.178465 -0.000000 68.107351
RightHand 31.344591 0.000000 -71.405341
RightHandThumb1 -24.326973 -0.000000 -32.862282
LeftShoulder -35.884388 31.509626 -15.190807
LeftArm 25.316059 -2.230450 -82.781728
LeftForeArm 38.326376 -0.000000 45.094074
LeftHand -29.118769 -0.000000 -20.878978
LeftHandThumb1 -26.253704 0.000000 33.147579
Head -4.285505 14.612535 -36.558451
2393
root -1.171603 6.357899 -7.353671 -17.808674 -25.639490 47.092904
RightUpLeg -99.114254 6.227749 34.800154
RightLeg 142.331021 -0.000000 -0.000000
RightFoot 19.748964 -3.370701 84.588884
RightToeBase -397.863690 -0.000000 0.000000
LeftUpLeg -10.753634 -19.708008 31.626018
LeftLeg 152.932389 -0.000000 -0.000000
LeftFoot 26.219506 17.735452 -22.428030
LeftToeBase 9.159617 -0.000000 -0.000000
Spine 26.675630 7.297203 -2.882301
RightShoulder 1.915952 -23.355987 -40.614916
RightArm -5.034718 -6.689906 81.206943
RightForeArm -5.227143 -0.000000 68.102980
RightHand 31.307035 -0.000000 -71.292588
RightHandThumb1 -24.326973 -0.000000 -32.862282
LeftShoulder -35.880396 31.520700 -15.195327
LeftArm 25.304972 -2.229026 -82.749483
LeftForeArm 38.297979 -0.000000 45.078619
LeftHand -29.121275 -0.000000 -20.899382
LeftHandThumb1 -26.253704 0.000000 33.147579
Head -4.292987 14.614328 -36.532835
2394
root -1.172364 6.358200 -7.353713 -17.814474 -25.639177 47.093759
RightUpLeg -99.100679 6.227041 34.798835
RightLeg 142.322910 -0.000000 -0.000000
RightFoot 19.650629 -3.412572 84.802831
RightToeBase -397.760240 -0.000000 0.000000
LeftUpLeg -10.747508 -19.712521 31.618921
LeftLeg 152.924273 -0.000000 -0.000000
LeftFoot 26.222020 17.697403 -22.397004
LeftToeBase 9.138266 -0.000000 -0.000000
Spine 26.631288 7.277987 -2.885215
RightShoulder 1.938688 -23.349180 -40.626821
RightArm -5.024563 -6.694352 81.207647
RightForeArm -5.262819 -0.000000 68.084636
RightHand 31.377560 -0.000000 -71.118745
RightHandThumb1 -24.326973 -0.000000 -32.862282
LeftShoulder -35.885839 31.515063 -15.206075
LeftArm 25.289313 -2.214904 -82.697082
LeftForeArm 38.228123 -0.000000 45.056604
LeftHand -29.125633 0.000000 -20.919882
LeftHandThumb1 -26.253704 0.000000 33.147579
Head -4.294005 14.688830 -36.489576
2395
root -1.171994 6.358123 -7.352508 -17.830728 -25.635598 47.094557
RightUpLeg -99.085083 6.210464 34.776320
RightLeg 142.315134 -0.000000 -0.000000
RightFoot 19.683196 -3.490012 85.124869
RightToeBase -397.891864 -0.000000 0.000000
LeftUpLeg -10.735767 -19.715774 31.614008
LeftLeg 152.914856 -0.000000 -0.000000
LeftFoot 26.222587 17.698677 -22.406513
LeftToeBase 9.169899 -0.000000 -0.000000
Spine 26.603017 7.272901 -2.886649
RightShoulder 1.942557 -23.317839 -40.616403
RightArm -5.047219 -6.698784 81.194991
RightForeArm -5.275267 -0.000000 68.084141
RightHand 31.375205 -0.000000 -71.087406
RightHandThumb1 -24.326973 -0.000000 -32.862282
LeftShoulder -35.898379 31.523415 -15.208502
LeftArm 25.288385 -2.201789 -82.681606
LeftForeArm 38.249790 0.000000 45.056596
LeftHand -29.092058 -0.000000 -20.866716
LeftHandThumb1 -26.253704 0.000000 33.147579
Head -4.302053 14.630139 -36.477337
